<?xml version="1.0" encoding="UTF-8"?>
<svg id="Layer_1" data-name="Layer 1" xmlns="http://www.w3.org/2000/svg" viewBox="0 0 1703.53 136.93">
  <defs>
    <style>
      .cls-1 {
        fill: #fff;
      }
    </style>
  </defs>
  <g>
    <path d="M5.68,17.61l19.35,8-.87-21.1h20.08l-.87,21.1,19.35-8,5.68,18.63-19.35,5.82,12.95,16.15-16.15,12.08-11.64-17.17-11.64,17.17-16.15-12.08,12.95-16.15L0,36.23l5.68-18.63Z"/>
    <path class="cls-1" d="M137.8,60.83c-.39-4.66-2.67-8-6.84-10.04-1.55-.78-3.49-1.38-5.82-1.82s-4.75-.65-7.28-.65c-7.66,0-13.24,1.82-16.73,5.46-3.49,3.64-5.24,8.37-5.24,14.19,0,6.21,1.84,11.11,5.53,14.7,3.69,3.59,9.07,5.38,16.15,5.38,5.53,0,9.99-.99,13.39-2.98,3.39-1.99,5.67-5.41,6.84-10.26h38.13c-.87,7.86-3.15,14.29-6.84,19.28-3.69,5-8.27,8.76-13.75,11.28-5.48,2.52-11.33,4.19-17.53,5.02-6.21.82-13,1.24-20.37,1.24-8.73,0-16.69-.73-23.86-2.18-7.18-1.46-13.46-3.86-18.84-7.2-5.38-3.35-9.56-7.81-12.51-13.39-2.96-5.58-4.44-12.39-4.44-20.44s1.5-14.7,4.51-20.23c3.01-5.53,7.18-9.94,12.51-13.24,5.33-3.3,11.57-5.68,18.7-7.13,7.13-1.46,15.11-2.18,23.94-2.18,17.85,0,31.6,2.67,41.25,8,9.65,5.34,15.4,14.41,17.24,27.21h-38.13Z"/>
    <path class="cls-1" d="M174.76,52.97c1.07-5.53,2.84-10.04,5.31-13.53,2.47-3.49,5.94-6.26,10.4-8.29,4.37-1.94,9.87-3.35,16.52-4.22,6.64-.87,14.92-1.31,24.81-1.31,18.72,0,32.04,2.4,39.94,7.2,7.91,4.8,11.86,13.07,11.86,24.81v38.42c0,2.82.29,5.19.87,7.13.58,1.94,1.41,3.69,2.47,5.24h-37.25c-.68-2.33-1.12-4.95-1.31-7.86-4.07,3.78-9.34,6.57-15.79,8.37-6.45,1.79-14.48,2.69-24.08,2.69-13,0-22.9-2.06-29.69-6.18-6.79-4.12-10.19-11.03-10.19-20.74,0-7.57,2.96-13.48,8.88-17.75,5.92-4.27,15.38-6.69,28.38-7.28l30.7-1.46c3.59-.19,6.11-.78,7.57-1.75,1.46-.97,2.18-2.57,2.18-4.8,0-2.52-1.48-4.44-4.44-5.75-2.96-1.31-7.11-1.96-12.44-1.96-4.95,0-9.05.63-12.3,1.89-3.25,1.26-5.26,3.64-6.04,7.13h-36.38ZM247.23,72.18c-2.62.58-5.97,1.09-10.04,1.53-4.07.44-9.7.95-16.88,1.53-1.07.1-1.89.2-2.47.29-6.6.58-9.9,3.2-9.9,7.86,0,6.02,4.51,9.02,13.53,9.02,3.39,0,6.57-.24,9.53-.73,2.96-.48,5.68-1.36,8.15-2.62,2.47-1.26,4.44-2.98,5.89-5.17s2.18-4.92,2.18-8.22v-3.49Z"/>
    <path class="cls-1" d="M310.24,76.83c-10.09-1.07-17.15-3.59-21.17-7.57-4.03-3.98-6.04-9.6-6.04-16.88,0-9.31,4.34-16.1,13.02-20.37,8.68-4.27,22-6.4,39.94-6.4,6.79,0,13.22.39,19.28,1.16,6.06.78,11.59,2.16,16.59,4.15,5,1.99,9,4.78,12.01,8.37,3.01,3.59,4.61,8.05,4.8,13.39h-41.04c0-2.23-.92-3.88-2.77-4.95-2.33-1.36-5.92-2.04-10.77-2.04s-8.46.49-10.26,1.46c-1.8.97-2.69,2.33-2.69,4.07,0,1.16.73,2.21,2.18,3.13,1.46.92,3.98,1.53,7.57,1.82l34.63,3.06c9.51.87,16.39,3.32,20.66,7.35,4.27,4.03,6.4,9.58,6.4,16.66,0,10.09-4.49,17.34-13.46,21.75-8.97,4.41-23.21,6.62-42.71,6.62s-32.86-2.16-41.54-6.48c-8.68-4.32-13.31-11.47-13.9-21.46h42.78c.39,3.01,1.89,5.14,4.51,6.4,2.23.97,5.67,1.46,10.33,1.46s7.59-.53,9.39-1.6c1.79-1.07,2.69-2.57,2.69-4.51,0-1.36-.39-2.47-1.16-3.35-.78-.87-2.04-1.41-3.78-1.6l-35.51-3.64Z"/>
    <path class="cls-1" d="M435.09,28.81h35.21v9.9h.29c2.23-3.01,6.28-5.77,12.15-8.29,5.87-2.52,12.78-3.78,20.74-3.78,10.67,0,19.21,2.55,25.61,7.64,6.4,5.09,9.6,12.93,9.6,23.5v50.64h-36.38v-41.18c0-4.85-1.21-8.46-3.64-10.84-2.43-2.38-5.87-3.57-10.33-3.57-5.05,0-9.12,1.58-12.22,4.73-3.11,3.15-4.66,7.88-4.66,14.19v36.67h-36.38V28.81Z"/>
    <path class="cls-1" d="M551.42,36.02c9.46-6.93,24.37-10.4,44.75-10.4s35.29,3.47,44.75,10.4c9.46,6.94,14.19,17.78,14.19,32.52s-4.71,25.61-14.11,32.6c-9.41,6.98-24.35,10.48-44.82,10.48s-35.41-3.49-44.82-10.48c-9.41-6.99-14.12-17.85-14.12-32.6s4.73-25.59,14.19-32.52ZM580.38,83.16c3.35,3.25,8.61,4.88,15.79,4.88s12.56-1.62,15.86-4.88c3.3-3.25,4.95-8.12,4.95-14.62s-1.67-11.23-5.02-14.48c-3.35-3.25-8.61-4.88-15.79-4.88s-12.44,1.62-15.79,4.88c-3.35,3.25-5.02,8.08-5.02,14.48s1.67,11.38,5.02,14.62Z"/>
    <path class="cls-1" d="M642.59,28.81h41.04l16.44,47.58h.29l16.44-47.58h41.04l-36.82,79.6h-41.62l-36.82-79.6Z"/>
    <path class="cls-1" d="M862.17,84.54c-2.82,8.54-8.88,15.13-18.19,19.79-9.7,4.85-22.55,7.28-38.56,7.28-19.4,0-34.27-3.59-44.6-10.77-10.33-7.18-15.5-17.95-15.5-32.3s4.97-24.25,14.92-31.72c9.94-7.47,23.89-11.2,41.84-11.2,9.12,0,17.32.85,24.59,2.55,7.28,1.7,13.61,4.51,18.99,8.44,5.38,3.93,9.55,9.24,12.51,15.93,2.96,6.69,4.44,14.89,4.44,24.59h-80.03c0,1.55.41,3.15,1.24,4.8.82,1.65,2.13,3.2,3.93,4.66,1.79,1.46,4.1,2.64,6.91,3.56,2.81.92,6.11,1.38,9.9,1.38,4.75,0,8.61-.56,11.57-1.67,2.96-1.11,5.41-2.88,7.35-5.31h38.71ZM795.38,0h44.09l-22.26,20.95h-35.07l13.24-20.95ZM825.94,58.79c-.39-4.27-2.5-7.66-6.33-10.19-3.83-2.52-8.9-3.78-15.21-3.78s-11.52,1.09-15.06,3.27c-3.54,2.18-5.8,5.75-6.77,10.7h43.36Z"/>
    <path class="cls-1" d="M906.55.87h36.38v53.7l27.5-25.76h48.31l-36.23,29.69,39.87,49.91h-49.18l-18.92-26.77-11.35,9.31v17.46h-36.38V.87Z"/>
    <path class="cls-1" d="M1013.65,52.97c1.07-5.53,2.84-10.04,5.31-13.53,2.47-3.49,5.94-6.26,10.4-8.29,4.37-1.94,9.87-3.35,16.52-4.22,6.64-.87,14.92-1.31,24.81-1.31,18.72,0,32.04,2.4,39.94,7.2,7.91,4.8,11.86,13.07,11.86,24.81v38.42c0,2.82.29,5.19.87,7.13.58,1.94,1.4,3.69,2.47,5.24h-37.25c-.68-2.33-1.12-4.95-1.31-7.86-4.08,3.78-9.34,6.57-15.79,8.37-6.45,1.79-14.48,2.69-24.08,2.69-13,0-22.9-2.06-29.68-6.18-6.79-4.12-10.19-11.03-10.19-20.74,0-7.57,2.96-13.48,8.88-17.75,5.92-4.27,15.37-6.69,28.38-7.28l30.7-1.46c3.59-.19,6.11-.78,7.57-1.75,1.46-.97,2.18-2.57,2.18-4.8,0-2.52-1.48-4.44-4.44-5.75-2.96-1.31-7.11-1.96-12.44-1.96-4.95,0-9.05.63-12.3,1.89-3.25,1.26-5.26,3.64-6.04,7.13h-36.38ZM1086.11,72.18c-2.62.58-5.97,1.09-10.04,1.53s-9.7.95-16.88,1.53c-1.07.1-1.89.2-2.47.29-6.6.58-9.9,3.2-9.9,7.86,0,6.02,4.51,9.02,13.53,9.02,3.39,0,6.57-.24,9.53-.73,2.96-.48,5.67-1.36,8.15-2.62,2.47-1.26,4.44-2.98,5.89-5.17s2.18-4.92,2.18-8.22v-3.49Z"/>
    <path class="cls-1" d="M1125.11,28.81h35.21v9.46h.29c3.4-3.88,7.74-6.79,13.02-8.73,5.29-1.94,11.86-2.91,19.72-2.91,6.01,0,11.74.85,17.17,2.55,5.43,1.7,10.26,4.29,14.48,7.79,4.22,3.49,7.54,7.93,9.97,13.31,2.42,5.38,3.64,11.67,3.64,18.84s-1.21,13.46-3.64,18.84c-2.43,5.38-5.75,9.82-9.97,13.32-4.22,3.49-9.05,6.09-14.48,7.79-5.43,1.7-11.16,2.55-17.17,2.55-14.84,0-25.37-3.73-31.58-11.2h-.29v36.52h-36.38V28.81ZM1166.37,82.51c3.25,3.11,8.32,4.66,15.21,4.66,6.3,0,11.18-1.67,14.62-5.02,3.44-3.35,5.17-7.69,5.17-13.02s-1.63-9.92-4.88-13.17c-3.25-3.25-8.27-4.88-15.06-4.88s-11.81,1.55-15.06,4.66c-3.25,3.11-4.88,7.57-4.88,13.39s1.62,10.28,4.88,13.39Z"/>
    <path class="cls-1" d="M1237.16.87h36.38v20.08h-36.38V.87ZM1237.16,28.81h36.38v79.6h-36.38V28.81Z"/>
    <path class="cls-1" d="M1269.02,28.81h16.88V3.2h36.38v25.61h19.64v22.7h-19.64v28.08c0,3.49.75,5.68,2.26,6.55,1.5.87,4.39,1.31,8.66,1.31,1.94,0,5.04-.1,9.31-.29h.44v21.25c-8.54,1.16-17.37,1.75-26.48,1.75-5.82,0-10.62-.34-14.41-1.02-3.78-.68-6.86-1.96-9.24-3.86-2.38-1.89-4.12-4.51-5.24-7.86-1.12-3.35-1.67-7.74-1.67-13.17v-32.74h-16.88v-22.7Z"/>
    <path class="cls-1" d="M1349.86,36.02c9.46-6.93,24.37-10.4,44.75-10.4s35.29,3.47,44.75,10.4c9.46,6.94,14.19,17.78,14.19,32.52s-4.71,25.61-14.12,32.6c-9.41,6.98-24.35,10.48-44.82,10.48s-35.41-3.49-44.82-10.48c-9.41-6.99-14.12-17.85-14.12-32.6s4.73-25.59,14.19-32.52ZM1378.81,83.16c3.35,3.25,8.61,4.88,15.79,4.88s12.56-1.62,15.86-4.88c3.3-3.25,4.95-8.12,4.95-14.62s-1.67-11.23-5.02-14.48c-3.35-3.25-8.61-4.88-15.79-4.88s-12.44,1.62-15.79,4.88c-3.35,3.25-5.02,8.08-5.02,14.48s1.67,11.38,5.02,14.62Z"/>
    <path class="cls-1" d="M1452.08.87h36.38v107.54h-36.38V.87Z"/>
    <path class="cls-1" d="M1491.81,112.05c1.55.19,2.98.31,4.29.36,1.31.05,2.89.07,4.73.07,4.17,0,7.13-.34,8.88-1.02,1.75-.68,3.3-2.38,4.66-5.09l2.04-4.37-36.96-73.19h38.12l17.61,40.89,17.61-40.89h38.12l-44.67,92.55c-1.55,3.1-3.06,5.6-4.51,7.49s-3.2,3.44-5.24,4.66c-2.04,1.21-4.66,2.08-7.86,2.62-3.2.53-7.23.8-12.08.8-3.78,0-7.86-.12-12.22-.36-4.37-.24-8.54-.56-12.51-.95v-23.57Z"/>
    <path class="cls-1" d="M1575.77,75.81h38.12v32.6h-38.12v-32.6Z"/>
    <path class="cls-1" d="M1620.59,75.81h38.12v32.6h-38.12v-32.6Z"/>
    <path class="cls-1" d="M1665.4,75.81h38.12v32.6h-38.12v-32.6Z"/>
  </g>
  <polygon class="cls-1" points="166.98 .2 144.38 21.2 92.17 21.2 69.56 .2 110.25 .2 120.17 11.29 130.08 .2 166.98 .2"/>
</svg>